<?xml version="1.0" encoding="UTF-8"?>
<!DOCTYPE svg PUBLIC "-//W3C//DTD SVG 1.1//EN" "http://www.w3.org/Graphics/SVG/1.1/DTD/svg11.dtd">
<!-- Creator: CorelDRAW 2019 (64 Bit) -->
<svg xmlns="http://www.w3.org/2000/svg" xml:space="preserve" width="1200px" height="800px" version="1.1" style="shape-rendering:geometricPrecision; text-rendering:geometricPrecision; image-rendering:optimizeQuality; fill-rule:evenodd; clip-rule:evenodd"
viewBox="0 0 1200 800"
 xmlns:xlink="http://www.w3.org/1999/xlink">
 <defs>
  <style type="text/css">
   <![CDATA[
    .fil10 {fill:#102048;fill-rule:nonzero}
    .fil12 {fill:#162B62;fill-rule:nonzero}
    .fil8 {fill:#1F3C88;fill-rule:nonzero}
    .fil11 {fill:#6C758D;fill-rule:nonzero}
    .fil15 {fill:#6F3428;fill-rule:nonzero}
    .fil4 {fill:#708CD5;fill-rule:nonzero}
    .fil23 {fill:#A6674D;fill-rule:nonzero}
    .fil22 {fill:#A76D33;fill-rule:nonzero}
    .fil21 {fill:#A9857E;fill-rule:nonzero}
    .fil2 {fill:#A9BAE6;fill-rule:nonzero}
    .fil13 {fill:#BBC4DB;fill-rule:nonzero}
    .fil18 {fill:#D1983B;fill-rule:nonzero}
    .fil5 {fill:#D3DFFF;fill-rule:nonzero}
    .fil17 {fill:#D4C2BE;fill-rule:nonzero}
    .fil9 {fill:#E28B6D;fill-rule:nonzero}
    .fil0 {fill:#E4E4E4;fill-rule:nonzero}
    .fil14 {fill:#EB9B76;fill-rule:nonzero}
    .fil6 {fill:#EE6F57;fill-rule:nonzero}
    .fil1 {fill:#F6F5F5;fill-rule:nonzero}
    .fil7 {fill:#F9B384;fill-rule:nonzero}
    .fil20 {fill:#FAA280;fill-rule:nonzero}
    .fil16 {fill:#FBC343;fill-rule:nonzero}
    .fil19 {fill:#FECFC9;fill-rule:nonzero}
    .fil3 {fill:white;fill-rule:nonzero}
   ]]>
  </style>
 </defs>
 <g id="Camada_x0020_1">
  <metadata id="CorelCorpID_0Corel-Layer"/>
  <path class="fil0" d="M2798.16 498.2c1.12,4.07 2.02,8.23 2.66,12.45l1.58 -0.24c-0.65,-4.29 -1.56,-8.51 -2.71,-12.64l-1.53 0.43zm3.81 25.12c0.03,1.01 0.05,2.03 0.05,3.04 0,3.21 -0.16,6.44 -0.46,9.68l1.58 0.15c0.32,-3.29 0.48,-6.57 0.48,-9.83 0,-1.03 -0.02,-2.06 -0.05,-3.09l-1.6 0.05 0 0zm-2.41 25.28c-0.91,4.09 -2.08,8.17 -3.55,12.22l1.51 0.54c1.48,-4.11 2.68,-8.25 3.6,-12.41l-1.56 -0.35 0 0zm-8.59 23.89c-1.88,3.71 -4.01,7.38 -6.41,10.99l1.33 0.88c2.43,-3.65 4.6,-7.38 6.51,-11.14l-1.43 -0.73zm-14.05 21.16c-2.67,3.17 -5.56,6.28 -8.7,9.31l1.11 1.15c3.18,-3.07 6.11,-6.22 8.81,-9.42l-1.22 -1.04zm-18.27 17.71c-3.24,2.58 -6.66,5.09 -10.29,7.52l0.88 1.33c3.67,-2.45 7.14,-4.99 10.4,-7.6l-0.99 -1.25 0 0zm-21.17 14.19c-3.61,2.04 -7.39,4 -11.33,5.88l0.68 1.44c3.98,-1.89 7.79,-3.87 11.43,-5.92l-0.78 -1.4zm-23.03 11.02c-3.85,1.55 -7.84,3.03 -11.98,4.45l0.51 1.51c4.17,-1.42 8.19,-2.92 12.07,-4.48l-0.6 -1.48zm-24.18 8.28c-4,1.15 -8.11,2.24 -12.37,3.26l0.38 1.55c4.27,-1.03 8.41,-2.12 12.43,-3.27l-0.44 -1.54zm-24.87 6c-4.09,0.81 -8.28,1.56 -12.59,2.26l0.26 1.58c4.32,-0.7 8.54,-1.46 12.64,-2.28l-0.31 -1.56zm-25.26 4.08c-4.14,0.53 -8.39,1.01 -12.73,1.43l0.16 1.59c4.35,-0.42 8.61,-0.9 12.77,-1.43l-0.2 -1.59zm-25.49 2.49c-4.18,0.29 -8.44,0.53 -12.79,0.71l0.07 1.6c4.36,-0.18 8.64,-0.43 12.83,-0.72l-0.11 -1.59zm-25.59 1.12c-3.81,0.07 -7.68,0.11 -11.62,0.11 -0.4,0 -0.8,0 -1.2,0l-0.01 1.6c0.41,0 0.81,0 1.21,0 3.95,0 7.83,-0.04 11.65,-0.11l-0.03 -1.6 0 0zm-25.64 -0.05c-4.2,-0.09 -8.47,-0.22 -12.81,-0.4l-0.06 1.6c4.34,0.18 8.62,0.31 12.84,0.4l0.03 -1.6zm-25.61 -1.05c-4.2,-0.25 -8.47,-0.53 -12.79,-0.87l-0.12 1.6c4.33,0.33 8.6,0.62 12.81,0.87l0.1 -1.6zm-25.57 -1.94c-4.2,-0.38 -8.45,-0.8 -12.76,-1.26l-0.17 1.59c4.31,0.46 8.58,0.88 12.78,1.27l0.15 -1.6zm-25.5 -2.71c-4.19,-0.51 -8.43,-1.05 -12.72,-1.62l-0.22 1.58c4.3,0.58 8.55,1.12 12.75,1.63l0.19 -1.59zm-25.42 -3.41c-4.18,-0.61 -8.41,-1.26 -12.68,-1.94l-0.25 1.58c4.28,0.68 8.51,1.33 12.7,1.95l0.23 -1.59zm-25.33 -4.02c-4.17,-0.71 -8.38,-1.45 -12.63,-2.23l-0.29 1.58c4.26,0.77 8.47,1.51 12.65,2.22l0.27 -1.57zm-25.24 -4.59c-4.16,-0.79 -8.35,-1.62 -12.59,-2.48l-0.31 1.57c4.23,0.86 8.43,1.69 12.59,2.49l0.31 -1.58zm-25.15 -5.08c-4.14,-0.88 -8.32,-1.79 -12.53,-2.72l-0.35 1.56c4.22,0.94 8.4,1.84 12.55,2.72l0.33 -1.56zm-25.04 -5.55c-4.13,-0.95 -8.3,-1.93 -12.49,-2.93l-0.37 1.55c4.2,1.01 8.36,1.99 12.5,2.94l0.36 -1.56zm-24.96 -5.97c-4.11,-1.02 -8.26,-2.06 -12.44,-3.13l-0.39 1.55c4.18,1.07 8.33,2.11 12.45,3.13l0.38 -1.55 0 0zm-24.85 -6.36c-1.2,-0.32 -2.41,-0.63 -3.61,-0.95 -2.96,-0.79 -5.9,-1.54 -8.83,-2.26l-0.39 1.55c2.93,0.72 5.86,1.47 8.81,2.25 1.2,0.32 2.41,0.64 3.61,0.96l0.41 -1.55 0 0zm-24.97 -6.11c-4.22,-0.92 -8.42,-1.77 -12.6,-2.57l-0.29 1.58c4.16,0.79 8.35,1.64 12.55,2.55l0.34 -1.56zm-25.27 -4.79c-4.26,-0.7 -8.51,-1.32 -12.72,-1.89l-0.22 1.58c4.21,0.57 8.43,1.2 12.69,1.89l0.25 -1.58zm-25.49 -3.45c-4.3,-0.46 -8.57,-0.87 -12.81,-1.22l-0.13 1.59c4.23,0.36 8.48,0.76 12.76,1.22l0.18 -1.59 0 0zm-25.64 -2.11c-4.31,-0.25 -8.6,-0.44 -12.85,-0.58l-0.05 1.6c4.24,0.14 8.51,0.33 12.81,0.58l0.09 -1.6zm-25.71 -0.84c-1.49,-0.01 -2.99,-0.01 -4.47,-0.01 -2.81,0 -5.6,0.02 -8.38,0.06l0.02 1.6c2.77,-0.04 5.56,-0.06 8.36,-0.06 1.48,0 2.97,0 4.46,0.01l0.01 -1.6zm-25.7 0.39c-4.31,0.16 -8.59,0.37 -12.84,0.62l0.1 1.6c4.23,-0.25 8.5,-0.46 12.8,-0.62l-0.06 -1.6 0 0zm-25.66 1.51c-4.31,0.34 -8.57,0.72 -12.8,1.14l0.16 1.6c4.21,-0.42 8.47,-0.8 12.77,-1.15l-0.13 -1.59zm-25.57 2.52c-4.3,0.51 -8.55,1.04 -12.75,1.61l0.21 1.58c4.19,-0.56 8.44,-1.09 12.72,-1.6l-0.18 -1.59zm-25.47 3.41c-4.29,0.64 -8.52,1.3 -12.7,1.98l0.26 1.58c4.17,-0.68 8.4,-1.34 12.67,-1.98l-0.23 -1.58zm-25.37 4.12c-4.27,0.75 -8.48,1.5 -12.64,2.27l0.29 1.57c4.15,-0.76 8.36,-1.52 12.63,-2.26l-0.28 -1.58zm-25.26 4.63c-4.27,0.82 -8.48,1.63 -12.61,2.43l0.3 1.57c4.14,-0.8 8.34,-1.62 12.61,-2.43l-0.3 -1.57zm-25.21 4.87c-4.29,0.83 -8.49,1.64 -12.61,2.41l0.3 1.57c4.12,-0.77 8.32,-1.58 12.61,-2.41l-0.3 -1.57zm-25.23 4.72c-4.32,0.76 -8.54,1.47 -12.65,2.12l0.25 1.58c4.12,-0.65 8.35,-1.36 12.68,-2.13l-0.28 -1.57zm-25.33 3.93c-4.38,0.56 -8.63,1.01 -12.73,1.34l0.13 1.6c4.13,-0.34 8.4,-0.79 12.8,-1.35l-0.2 -1.59zm-25.49 1.96c-0.58,0.01 -1.16,0.01 -1.73,0.01 -3.83,0 -7.5,-0.15 -11,-0.48l-0.15 1.59c3.56,0.34 7.28,0.49 11.15,0.49 0.58,0 1.16,0 1.75,-0.01l-0.02 -1.6zm-25.25 -2.58c-4.25,-1.1 -8.18,-2.57 -11.79,-4.47l-0.75 1.42c3.74,1.96 7.79,3.47 12.14,4.6l0.4 -1.55 0 0zm-21.98 -11.8c-2.91,-2.81 -5.5,-6.08 -7.78,-9.89l-1.37 0.82c2.34,3.92 5.03,7.31 8.04,10.22l1.11 -1.15zm-13.09 -21.38c-1.46,-4.04 -2.79,-8.09 -3.99,-12.15l-1.53 0.46c1.2,4.09 2.54,8.17 4.02,12.24l1.5 -0.55zm-7.22 -24.52c-0.96,-4.17 -1.78,-8.36 -2.46,-12.54l-1.58 0.26c0.69,4.22 1.52,8.43 2.48,12.64l1.56 -0.36zm-4.13 -25.22c-0.43,-4.25 -0.73,-8.5 -0.89,-12.75l-1.6 0.06c0.16,4.29 0.46,8.57 0.89,12.85l1.6 -0.16 0 0zm-1.01 -25.54c0.09,-4.26 0.31,-8.51 0.65,-12.76l-1.6 -0.12c-0.34,4.27 -0.56,8.56 -0.65,12.85l1.6 0.03zm2.03 -25.45c0.57,-4.21 1.27,-8.41 2.08,-12.59l-1.57 -0.3c-0.82,4.21 -1.52,8.43 -2.1,12.67l1.59 0.22zm4.85 -25.04c1.03,-4.13 2.17,-8.24 3.42,-12.33l-1.54 -0.46c-1.25,4.11 -2.4,8.24 -3.44,12.4l1.56 0.39zm7.45 -24.47c1.44,-4 2.98,-7.98 4.62,-11.93l-1.48 -0.61c-1.65,3.97 -3.2,7.98 -4.64,12l1.5 0.54zm9.79 -23.63c1.81,-3.85 3.71,-7.68 5.69,-11.47l-1.41 -0.74c-2,3.81 -3.91,7.65 -5.73,11.53l1.45 0.68zm11.88 -22.67c2.14,-3.69 4.35,-7.33 6.65,-10.94l-1.35 -0.86c-2.31,3.62 -4.54,7.29 -6.68,10.99l1.38 0.81zm13.72 -21.58c2.43,-3.49 4.92,-6.94 7.49,-10.34l-1.28 -0.97c-2.58,3.43 -5.09,6.89 -7.52,10.4l1.31 0.91zm15.38 -20.4c2.69,-3.3 5.44,-6.56 8.26,-9.76l-1.2 -1.06c-2.83,3.22 -5.6,6.49 -8.3,9.8l1.24 1.02zm16.88 -19.21c2.93,-3.1 5.92,-6.14 8.96,-9.14l-1.12 -1.14c-3.06,3.01 -6.06,6.07 -9,9.18l1.16 1.1zm18.25 -17.94c3.16,-2.88 6.36,-5.71 9.61,-8.48l-1.04 -1.22c-3.26,2.78 -6.48,5.62 -9.64,8.52l1.07 1.18zm19.52 -16.6c3.35,-2.66 6.75,-5.25 10.2,-7.77l-0.95 -1.29c-3.46,2.54 -6.87,5.14 -10.24,7.8l0.99 1.26zm20.67 -15.17c3.54,-2.41 7.12,-4.75 10.74,-7.02l-0.85 -1.36c-3.63,2.28 -7.23,4.63 -10.79,7.05l0.9 1.33zm21.74 -13.64c3.71,-2.14 7.46,-4.21 11.24,-6.2l-0.75 -1.42c-3.8,2 -7.56,4.08 -11.29,6.23l0.8 1.39zm22.71 -11.97c3.86,-1.85 7.74,-3.62 11.65,-5.3l-0.63 -1.47c-3.93,1.69 -7.84,3.47 -11.71,5.32l0.69 1.45 0 0zm23.51 -10.13c4,-1.54 8.01,-2.98 12.05,-4.34l-0.51 -1.51c-4.06,1.36 -8.1,2.81 -12.11,4.35l0.57 1.5zm24.27 -8.15c4.11,-1.19 8.23,-2.28 12.37,-3.27l-0.38 -1.56c-4.16,1 -8.3,2.1 -12.44,3.29l0.45 1.54 0 0zm24.87 -5.97c4.2,-0.81 8.41,-1.51 12.62,-2.1l-0.22 -1.59c-4.24,0.6 -8.47,1.31 -12.7,2.12l0.3 1.57zm25.36 -3.58c4.26,-0.38 8.52,-0.65 12.78,-0.81l-0.06 -1.6c-4.29,0.16 -8.58,0.43 -12.86,0.82l0.14 1.59zm25.57 -0.95c4.27,0.08 8.53,0.27 12.77,0.58l0.12 -1.6c-4.28,-0.31 -8.57,-0.5 -12.86,-0.58l-0.03 1.6zm25.49 1.88c4.22,0.56 8.43,1.24 12.62,2.05l0.3 -1.57c-4.22,-0.81 -8.46,-1.5 -12.71,-2.06l-0.21 1.58 0 0zm25.09 4.86c4.11,1.05 8.2,2.24 12.27,3.56l0.49 -1.52c-4.1,-1.33 -8.22,-2.53 -12.37,-3.59l-0.39 1.55 0 0zm24.29 7.87c3.94,1.56 7.85,3.24 11.74,5.06l0.68 -1.45c-3.92,-1.83 -7.86,-3.53 -11.84,-5.09l-0.58 1.48zm23.14 10.84c3.71,2.03 7.38,4.18 11.02,6.46l0.86 -1.35c-3.67,-2.3 -7.38,-4.47 -11.12,-6.51l-0.76 1.4zm21.64 13.58c3.44,2.45 6.83,5.03 10.19,7.73l1 -1.25c-3.38,-2.72 -6.8,-5.31 -10.26,-7.78l-0.93 1.3 0 0zm19.92 16.02c2.03,1.83 4.05,3.71 6.04,5.64 1.1,1.06 2.2,2.11 3.3,3.14l1.09 -1.16c-1.09,-1.03 -2.18,-2.07 -3.27,-3.13 -2.02,-1.94 -4.04,-3.83 -6.09,-5.67l-1.07 1.18zm18.87 17.39c3.28,2.84 6.57,5.58 9.88,8.21l1 -1.25c-3.29,-2.62 -6.57,-5.34 -9.83,-8.17l-1.05 1.21zm20.1 16c3.5,2.55 7.02,5 10.55,7.34l0.88 -1.33c-3.51,-2.33 -7,-4.76 -10.49,-7.3l-0.94 1.29zm21.41 14.2c3.71,2.23 7.43,4.35 11.16,6.37l0.76 -1.4c-3.71,-2.01 -7.41,-4.12 -11.1,-6.34l-0.82 1.37zm22.6 12.24c3.88,1.88 7.78,3.67 11.68,5.35l0.64 -1.47c-3.89,-1.67 -7.76,-3.45 -11.63,-5.32l-0.69 1.44zm23.59 10.18c4.03,1.54 8.07,2.98 12.11,4.33l0.51 -1.52c-4.02,-1.34 -8.04,-2.78 -12.05,-4.3l-0.57 1.49zm24.38 8.15c4.14,1.2 8.28,2.32 12.41,3.35l0.39 -1.55c-4.11,-1.03 -8.23,-2.14 -12.35,-3.34l-0.45 1.54 0 0zm24.94 6.25c4.21,0.89 8.41,1.72 12.62,2.47l0.28 -1.57c-4.19,-0.75 -8.37,-1.57 -12.57,-2.47l-0.33 1.57zm25.3 4.56c4.26,0.64 8.5,1.21 12.74,1.74l0.2 -1.59c-4.23,-0.52 -8.46,-1.1 -12.7,-1.73l-0.24 1.58zm25.52 3.17c4.27,0.43 8.54,0.81 12.79,1.16l0.14 -1.6c-4.25,-0.34 -8.5,-0.73 -12.77,-1.16l-0.16 1.6zm25.61 2.1c4.3,0.28 8.58,0.54 12.83,0.77l0.09 -1.6c-4.25,-0.23 -8.52,-0.49 -12.81,-0.77l-0.11 1.6zm25.66 1.41c4.3,0.2 8.58,0.39 12.83,0.57l0.07 -1.6c-4.25,-0.18 -8.53,-0.37 -12.82,-0.57l-0.08 1.6zm25.66 1.11c4.31,0.19 8.58,0.38 12.82,0.59l0.08 -1.6c-4.25,-0.21 -8.52,-0.4 -12.83,-0.58l-0.07 1.59 0 0zm25.64 1.28c4.3,0.25 8.56,0.54 12.79,0.86l0.13 -1.6c-4.24,-0.32 -8.52,-0.6 -12.83,-0.86l-0.09 1.6zm25.57 1.95c4.29,0.42 8.53,0.89 12.73,1.43l0.2 -1.59c-4.22,-0.54 -8.47,-1.01 -12.78,-1.43l-0.15 1.59zm25.39 3.26c4.25,0.7 8.44,1.47 12.57,2.35l0.33 -1.57c-4.15,-0.87 -8.37,-1.66 -12.64,-2.36l-0.26 1.58zm25.01 5.31c4.13,1.1 8.21,2.32 12.21,3.67l0.51 -1.52c-4.04,-1.36 -8.14,-2.59 -12.31,-3.7l-0.41 1.55 0 0zm24.17 8.16c3.91,1.64 7.75,3.42 11.51,5.37l0.73 -1.43c-3.8,-1.96 -7.68,-3.76 -11.63,-5.41l-0.61 1.47zm22.54 11.68c3.55,2.24 7.03,4.66 10.43,7.26l0.98 -1.28c-3.44,-2.62 -6.96,-5.06 -10.56,-7.34l-0.85 1.36 0 0zm20.16 15.42c3.07,2.82 6.05,5.82 8.96,9l1.18 -1.08c-2.94,-3.22 -5.96,-6.24 -9.06,-9.1l-1.08 1.18 0 0zm17.14 18.74c2.53,3.28 4.99,6.73 7.39,10.36l1.34 -0.88c-2.42,-3.66 -4.91,-7.15 -7.47,-10.46l-1.26 0.98 0 0zm14.04 21.26c0.16,0.28 0.31,0.56 0.47,0.84 2.06,3.68 3.91,7.51 5.53,11.46l1.48 -0.6c-1.65,-4.01 -3.52,-7.9 -5.61,-11.64 -0.16,-0.28 -0.32,-0.56 -0.47,-0.84l-1.4 0.78z"/>
  <path class="fil1" d="M2786.55 671.67l-937.63 0c29.34,-216.8 228.03,-384.49 468.81,-384.49 240.77,0 439.48,167.69 468.82,384.49z"/>
  <path class="fil2" d="M2664.33 669.77l-352.67 0c-16.42,0 -29.74,-13.31 -29.74,-29.73l0 -505.88c0,-16.42 13.32,-29.73 29.74,-29.73l352.67 0c16.42,0 29.73,13.31 29.73,29.73l0 505.88c0,16.42 -13.31,29.73 -29.73,29.73z"/>
  <polygon class="fil1" points="2319.17,619.96 2658.39,619.96 2658.39,127.21 2319.17,127.21 "/>
  <path class="fil0" d="M2658.38 127.21c0.11,192.15 6.32,423.89 -15.27,475.2 -95.07,9.26 -206.38,12.23 -323.94,12.78l44.69 -486.49 294.52 -1.49z"/>
  <path class="fil3" d="M2627.92 586.88c-148.18,23.71 -247.21,24.97 -327.53,19 10.41,-110.8 14.58,-294.87 18.78,-478.64l178.55 0.39 161.6 10.67c2.35,190.74 2.61,366.93 -31.4,448.58z"/>
  <polygon class="fil4" points="2574.92,204.03 2396.48,199.83 2397.12,172.65 2575.56,176.85 "/>
  <polygon class="fil4" points="2609.97,243.37 2449,239.58 2448.71,252.02 2609.67,255.81 "/>
  <polygon class="fil5" points="2557.77,269.28 2448.37,266.71 2448.07,279.15 2557.48,281.72 "/>
  <polygon class="fil3" points="2397.39,277.22 2359.28,276.33 2360.18,238.22 2398.29,239.12 "/>
  <polygon class="fil4" points="2397.39,277.22 2397.42,276.02 2360.51,275.15 2361.35,239.45 2397.06,240.29 2396.19,277.19 2397.39,277.22 2397.42,276.02 2397.39,277.22 2398.59,277.25 2399.52,237.95 2359.01,236.99 2358.06,277.5 2398.56,278.45 2398.59,277.25 "/>
  <path class="fil6" d="M2366.39 248.25c1.18,4.5 3.35,23.37 12.8,18.09 2.18,-1.21 4.02,-4.43 5.65,-6.28 2.93,-3.33 5.86,-6.65 8.79,-9.98 5.86,-6.65 11.72,-13.3 17.58,-19.96 1.5,-1.7 -5.13,-5.98 -7.01,-3.84 -5.21,5.92 -10.42,11.83 -15.63,17.74 -2.6,2.96 -5.21,5.92 -7.81,8.87 -1.81,2.06 -5.99,8.67 -8.67,9.26 1.46,0.47 2.92,0.94 4.37,1.41 1.04,0.85 -0.88,-5.15 -0.92,-5.31 -0.73,-2.78 -1.46,-5.56 -2.18,-8.35 -0.6,-2.29 -7.86,-5.06 -6.97,-1.65z"/>
  <polygon class="fil4" points="2579.92,311.98 2447.38,308.86 2447.08,321.3 2579.63,324.42 "/>
  <polygon class="fil5" points="2607.69,339.77 2446.74,335.98 2446.44,348.42 2607.41,352.21 "/>
  <polygon class="fil3" points="2395.76,346.5 2357.66,345.6 2358.55,307.5 2396.66,308.39 "/>
  <polygon class="fil4" points="2395.76,346.5 2395.79,345.3 2358.88,344.43 2359.72,308.73 2395.43,309.57 2394.56,346.47 2395.76,346.5 2395.79,345.3 2395.76,346.5 2396.96,346.53 2397.88,307.22 2357.38,306.27 2356.43,346.77 2396.93,347.73 2396.96,346.53 "/>
  <path class="fil6" d="M2364.74 318.6c1.17,4.5 3.34,23.37 12.79,18.09 2.18,-1.21 4.03,-4.43 5.66,-6.28 2.93,-3.33 5.86,-6.65 8.79,-9.98 5.86,-6.65 11.72,-13.3 17.58,-19.96 1.5,-1.7 -5.14,-5.98 -7.02,-3.84 -5.21,5.92 -10.42,11.83 -15.62,17.74 -2.61,2.96 -5.21,5.92 -7.82,8.87 -1.8,2.06 -5.98,8.67 -8.66,9.26 1.45,0.47 2.91,0.94 4.37,1.41 1.03,0.85 -0.89,-5.14 -0.93,-5.31 -0.72,-2.78 -1.45,-5.56 -2.18,-8.34 -0.6,-2.3 -7.85,-5.07 -6.96,-1.66z"/>
  <polygon class="fil4" points="2606.7,381.92 2445.74,378.13 2445.45,390.57 2606.41,394.36 "/>
  <polygon class="fil5" points="2517.09,406.95 2445.1,405.26 2444.81,417.7 2516.8,419.39 "/>
  <polygon class="fil3" points="2394.13,415.77 2356.02,414.88 2356.92,376.77 2395.02,377.67 "/>
  <polygon class="fil4" points="2394.13,415.77 2394.16,414.58 2357.25,413.71 2358.09,378 2393.8,378.84 2392.93,415.75 2394.13,415.77 2394.16,414.58 2394.13,415.77 2395.33,415.8 2396.25,376.5 2355.75,375.55 2354.8,416.05 2395.3,417 2395.33,415.8 "/>
  <path class="fil6" d="M2363.62 388.37c1.18,4.5 3.35,23.37 12.8,18.09 2.18,-1.21 4.02,-4.43 5.65,-6.28 2.93,-3.33 5.86,-6.65 8.79,-9.98 5.86,-6.65 11.72,-13.31 17.58,-19.96 1.5,-1.7 -5.13,-5.98 -7.01,-3.84 -5.21,5.91 -10.42,11.83 -15.63,17.74 -2.6,2.96 -5.21,5.91 -7.81,8.87 -1.81,2.06 -5.99,8.67 -8.67,9.26 1.46,0.47 2.92,0.94 4.38,1.41 1.02,0.85 -0.89,-5.15 -0.93,-5.31 -0.73,-2.78 -1.45,-5.56 -2.18,-8.35 -0.6,-2.29 -7.86,-5.06 -6.97,-1.65z"/>
  <polygon class="fil4" points="2605.08,451.2 2444.12,447.41 2443.82,459.85 2604.78,463.64 "/>
  <polygon class="fil5" points="2570.63,477.53 2443.48,474.53 2443.18,486.98 2570.34,489.97 "/>
  <polygon class="fil3" points="2392.5,485.05 2354.39,484.15 2355.29,446.05 2393.4,446.95 "/>
  <polygon class="fil4" points="2392.5,485.05 2392.53,483.85 2355.62,482.98 2356.46,447.28 2392.17,448.12 2391.3,485.03 2392.5,485.05 2392.53,483.85 2392.5,485.05 2393.7,485.08 2394.62,445.77 2354.12,444.82 2353.16,485.33 2393.67,486.28 2393.7,485.08 "/>
  <path class="fil6" d="M2362 457.19c1.18,4.5 3.35,23.37 12.8,18.09 2.18,-1.21 4.02,-4.43 5.65,-6.28 2.93,-3.33 5.86,-6.65 8.79,-9.98 5.86,-6.65 11.72,-13.3 17.58,-19.95 1.5,-1.71 -5.13,-5.99 -7.01,-3.84 -5.21,5.91 -10.42,11.82 -15.63,17.74 -2.6,2.95 -5.21,5.91 -7.81,8.86 -1.81,2.06 -5.99,8.68 -8.67,9.26 1.46,0.47 2.92,0.94 4.38,1.41 1.02,0.85 -0.89,-5.14 -0.93,-5.31 -0.73,-2.78 -1.45,-5.56 -2.18,-8.34 -0.6,-2.3 -7.86,-5.07 -6.97,-1.66z"/>
  <polygon class="fil4" points="2506.3,517.66 2442.5,516.16 2442.2,528.6 2506.01,530.11 "/>
  <path class="fil5" d="M2602.82 547.08l-160.96 -3.79 -0.3 12.44c62.28,1.46 141.57,4.38 157.75,1.9 2.45,-2.8 3.78,-6.22 3.51,-10.55z"/>
  <polygon class="fil3" points="2391.41,553.82 2353.31,552.92 2354.2,514.81 2392.31,515.71 "/>
  <polygon class="fil4" points="2391.41,553.82 2391.44,552.62 2354.54,551.75 2355.38,516.04 2391.08,516.88 2390.21,553.79 2391.41,553.82 2391.44,552.62 2391.41,553.82 2392.61,553.85 2393.54,514.54 2353.04,513.59 2352.08,554.09 2392.58,555.05 2392.61,553.85 "/>
  <path class="fil6" d="M2360.4 525.41c1.18,4.5 3.35,23.37 12.8,18.09 2.17,-1.21 4.02,-4.43 5.65,-6.28 2.93,-3.33 5.86,-6.65 8.79,-9.98 5.86,-6.65 11.72,-13.3 17.58,-19.95 1.5,-1.71 -5.13,-5.99 -7.02,-3.85 -5.21,5.92 -10.42,11.83 -15.62,17.74 -2.61,2.96 -5.21,5.92 -7.82,8.87 -1.8,2.06 -5.98,8.67 -8.66,9.26 1.46,0.47 2.91,0.94 4.37,1.41 1.03,0.85 -0.88,-5.15 -0.93,-5.31 -0.72,-2.78 -1.45,-5.56 -2.18,-8.34 -0.6,-2.3 -7.85,-5.07 -6.96,-1.66z"/>
  <path class="fil6" d="M2564.39 107.85l0 38.03 -152.8 0 0 -38.03c0,-6.06 2.46,-11.55 6.43,-15.54 0.5,-0.49 1.01,-0.96 1.55,-1.39 3.79,-3.15 8.67,-5.04 13.99,-5.04 3.98,0 7.8,-0.91 11.23,-2.56 1.49,-0.72 2.89,-1.57 4.22,-2.54 4.37,-3.23 7.71,-7.83 9.38,-13.3 1.69,-5.58 5.17,-10.25 9.66,-13.5 4.32,-3.11 9.59,-4.9 15.17,-4.9l9.54 0c5.58,0 10.84,1.79 15.16,4.9 4.5,3.25 7.97,7.92 9.67,13.5 1.66,5.47 5.01,10.07 9.37,13.3 1.33,0.97 2.74,1.82 4.23,2.54 3.42,1.65 7.24,2.56 11.23,2.56 5.31,0 10.19,1.89 13.98,5.04 4.89,4.02 7.99,10.11 7.99,16.93z"/>
  <polygon class="fil0" points="2576.79,127.21 2576.79,155.48 2399.19,155.48 2399.19,127.21 2411.59,127.21 2411.59,145.88 2564.39,145.88 2564.39,127.21 "/>
  <path class="fil3" d="M2501.54 71.88c0,7.11 -6.06,12.88 -13.55,12.88 -7.49,0 -13.55,-5.77 -13.55,-12.88 0,-7.11 6.06,-12.88 13.55,-12.88 7.49,0 13.55,5.77 13.55,12.88z"/>
  <path class="fil7" d="M2195.16 249.93c-5.42,-1.02 -10.49,-10.08 -12.25,-13.55 -0.43,-0.85 -0.57,-1.82 -0.39,-2.76l2.16 -11.43c0,0 4.98,0.85 4.59,7.48 -0.04,0.68 0.1,1.37 0.35,2.01l1.9 4.99 5.64 -4.36 -3.09 -8.72c0,0 -4.14,1.13 -6.27,0.45 -4.38,-1.4 1.36,-4.81 3.18,-5.18 1.82,-0.36 5.81,-1.82 7.63,1.27 1.82,3.09 2.91,4.91 2.91,4.91 0,0 2,-6.9 0.63,-22.35 -0.06,-0.69 1.68,-0.68 2.17,-0.18 1.46,1.49 3.8,6.02 3.92,19.8 0,0 0.24,-16.06 3,-17.71 2.27,-1.36 3.42,6.5 1.82,19.83 0,0 2.96,-11.54 5.08,-11.56 3.58,-0.04 0.05,30.83 -8.95,40.03l-14.03 -2.97z"/>
  <path class="fil7" d="M2212.15 245.21c-0.16,1.54 -0.34,3.02 -0.53,4.46l0 0.02c-0.64,5.12 -1.44,9.7 -2.37,13.62 -0.05,0.19 -0.08,0.36 -0.13,0.54 -2.73,11.22 -3.23,16.7 -12.57,15.23l-9.62 -10.94 -0.09 -0.11 -0.71 -0.8 1.95 -5.76 0.26 -0.76 1.44 -4.19 0.18 -0.54 2.46 -7.22 0.99 -2.93 18.74 -0.62z"/>
  <path class="fil8" d="M2033.5 643.71l-2.44 7.66c-16.79,5.51 -26.58,11.82 -27.2,19.2l48.53 0 3.89 -25.62c-9.83,2.4 -17.71,0.73 -22.78,-1.24z"/>
  <path class="fil7" d="M2039.59 624.7l-6.09 19.01c5.07,1.97 12.95,3.64 22.78,1.24l2.51 -16.52 -19.2 -3.73z"/>
  <path class="fil7" d="M2122.56 642.87l1.43 -19.37 -22.8 1.2 -1.25 17.85c9.66,3.08 17.64,1.88 22.62,0.32z"/>
  <path class="fil8" d="M2149.99 670.57c-0.63,-7.38 -9.2,-17.47 -28,-19.87l0.57 -7.83c-4.98,1.56 -12.96,2.76 -22.62,-0.32l-1.95 28.02 52 0z"/>
  <polygon class="fil7" points="2104.08,254.91 2076.58,255.1 2076.58,213.5 2103.25,213.5 2103.27,216.04 2103.4,229.23 2103.59,250.39 "/>
  <path class="fil9" d="M2103.4 231.23c-4.95,5.2 -17.84,-0.68 -23.28,-6.4l23.15 -6.79 0.13 13.19z"/>
  <path class="fil7" d="M2109.78 203.9c-0.02,3.07 -0.21,6.29 -0.72,9.36 -1.34,8.38 -4.89,15.63 -13.09,15.85 -19.36,0.56 -24.88,-10.51 -28.52,-19.56 -3.65,-9.08 2.27,-30.88 2.27,-30.88l25.05 -2.48 13.76 11.28c0,0 1.33,7.66 1.25,16.43z"/>
  <path class="fil10" d="M2068.23 204.36c0,0 5.52,-0.25 6.46,-14.51 9.88,3.3 17.1,0.29 22.81,-6.29 4.88,6.45 18.54,8.47 23.16,-4.73 3.33,-9.53 -5.87,-23.73 -19.27,-15.13 -13.13,-6.64 -33.05,-6.18 -38.78,10.09 0,0 -19.93,9.19 1.17,29.42 0.42,0.41 4.45,1.15 4.45,1.15z"/>
  <polygon class="fil10" points="2144.39,404.42 2129.19,634.3 2093.46,634.3 2102.39,411.23 2107.86,408.7 "/>
  <polygon class="fil8" points="2051.32,372.97 2026.26,634.3 2065.19,634.3 2102.26,417.23 2144.39,404.43 2146.26,358.03 2052.39,355.9 "/>
  <polygon class="fil11" points="2136.43,357.81 2136.41,357.81 2136.39,357.73 "/>
  <path class="fil12" d="M2081.34 376.39c0.51,-2.34 0.98,-4.67 1.42,-6.99 0.45,0 0.9,0.01 1.35,0.01 1.93,0 3.86,-0.06 5.77,-0.15l0 0c6.11,-0.29 12.11,-1.06 17.87,-2.19l0 0c9.65,-1.88 18.7,-4.71 26.65,-7.94l0 0c0.72,-0.27 1.43,-0.58 2.12,-0.86l-0.11 -0.46 0.02 0 2 4c-7.32,7.51 -34.34,14.07 -57.09,14.58z"/>
  <path class="fil3" d="M2136.52 358.27c-0.69,0.28 -1.4,0.59 -2.12,0.86 -7.95,3.23 -17,6.06 -26.65,7.94 -5.76,1.13 -11.76,1.9 -17.87,2.19 -9.22,0.46 -18.69,-0.15 -28.07,-2.27l11.92 -111.14 1.46 -13.55c0,0 15.6,19.2 32.8,-2l28.53 117.97z"/>
  <path class="fil13" d="M2084.11 369.41c-0.45,0 -0.9,-0.01 -1.35,-0.01 7.43,-39.49 4.92,-76.46 -2.06,-112.43 9.51,27.92 17.76,78.14 9.18,112.29l0 0c-1.91,0.09 -3.84,0.15 -5.77,0.15z"/>
  <path class="fil4" d="M2076.59 237.9c11.85,50.32 16.73,102.1 -0.73,159.6 -12.95,4.92 -27.05,4.87 -42.14,0.53l3.74 -104.53 -87.87 60.4 -5.33 -32.94c33.77,-32.29 92.17,-81.08 132.33,-83.06z"/>
  <path class="fil13" d="M2107.75 367.07c-5.3,-30.37 -6.46,-80.26 -2.16,-102.77l28.81 94.83c-7.95,3.23 -17,6.06 -26.65,7.94l0 0z"/>
  <path class="fil14" d="M2199.25 279.32c-0.81,0 -1.7,-0.08 -2.7,-0.24l-9.62 -10.94 -0.09 -0.11 1.24 -6.56 0.26 -0.76 1.44 -4.19 0.18 -0.54 19.29 7.33c-0.05,0.19 -0.08,0.36 -0.13,0.54 -2.44,10.02 -3.1,15.47 -9.87,15.47z"/>
  <path class="fil4" d="M2207.59 273.5c0,0 -23.6,50 -37.6,51.2 -13.57,1.16 -20,-12 -20,-12l9.6 73.07c-11.28,5.28 -23.59,7.86 -37.87,5.33 -12.69,-41.2 -17.49,-94.47 -18.43,-153.8 10.27,0.64 30.61,1.52 37.9,6.2 13.07,8.4 29.2,38.4 29.2,38.4l18.8 -25.6 18.4 17.2z"/>
  <path class="fil15" d="M1919.89 203.05c0,0 1.42,-23.92 3.86,-22.79 2.43,1.13 7.32,21.92 7.32,21.92l-5.23 8.43 -5.95 -7.56z"/>
  <path class="fil6" d="M1991.71 634.97l0.71 7.87c1.24,13.89 -9.01,26.17 -22.91,27.42l-2.02 0.18c-13.9,1.25 -26.18,-9 -27.42,-22.9l-0.71 -7.87 52.35 -4.7z"/>
  <polygon class="fil16" points="1957.46,253.78 1991.71,634.97 1939.36,639.67 1905.11,258.48 "/>
  <polygon class="fil17" points="1920.39,257.11 1919.56,247.87 1941.34,245.92 1942.17,255.15 1938.98,255.44 1938.44,249.39 1923.04,250.77 1923.58,256.82 "/>
  <polygon class="fil18" points="1949.87,585.18 1920.39,257.11 1923.58,256.82 1952.77,581.71 1968.17,580.32 1938.98,255.44 1942.17,255.15 1971.5,581.63 1969.91,581.77 1971.5,581.63 1971.65,583.23 "/>
  <polygon class="fil10" points="1991.7,634.97 1939.37,639.67 1937.99,624.31 1937.03,613.64 1934.07,580.84 1986.42,576.14 1989.37,608.94 1990.33,619.61 "/>
  <polygon class="fil16" points="1990.33,619.61 1937.99,624.31 1937.03,613.64 1989.37,608.94 "/>
  <path class="fil6" d="M1905.11 258.48l14.54 -58.27c0,0 5.02,2.22 11.1,-1.54l26.71 55.11 -52.35 4.7z"/>
  <path class="fil7" d="M2071.12 201.95c-0.23,-0.86 -4.14,-2.04 -5,-2.28 -1.33,-0.37 -2.78,-0.55 -4.08,0.04 -4.72,2.13 -4.09,8.9 -1.65,12.45 1.39,2.02 3.42,3.57 5.78,4.24 0.86,0.25 8.99,0.34 8.63,-0.96l-3.68 -13.49z"/>
  <path class="fil7" d="M1922.39 337.9c-1.23,-3.86 -5.27,-6.02 -9.09,-4.7 -5.96,2.06 -11.14,5.55 -11.95,11.48 -0.73,5.4 1.97,22.67 14.05,24.89l-0.99 -8.88c0,0 7.39,-1.72 8.87,-4.92 1.04,-2.24 1.1,-11.61 -0.89,-17.87z"/>
  <path class="fil8" d="M2146.3 278.53c0.64,3.78 1.18,7.57 1.69,11.36 0.54,3.79 0.97,7.59 1.45,11.38l1.24 11.41c0.36,3.81 0.72,7.62 0.95,11.45l-0.62 0.07c-0.65,-3.77 -1.19,-7.56 -1.71,-11.35l-1.43 -11.39c-0.4,-3.81 -0.87,-7.61 -1.22,-11.42 -0.37,-3.81 -0.72,-7.62 -0.97,-11.44l0.62 -0.07z"/>
  <path class="fil8" d="M2038.7 277.91c-0.01,4.25 -0.11,8.48 -0.24,12.72 -0.1,4.24 -0.32,8.47 -0.48,12.71l-0.69 12.69c-0.29,4.23 -0.58,8.46 -0.99,12.68l-0.62 -0.03c-0.02,-4.24 0.09,-8.48 0.21,-12.71l0.51 -12.71c0.24,-4.23 0.42,-8.46 0.71,-12.69 0.28,-4.23 0.58,-8.46 0.97,-12.69l0.62 0.03z"/>
  <path class="fil10" d="M2090.54 201.55c0.34,1.51 -0.28,2.93 -1.39,3.18 -1.1,0.25 -2.27,-0.77 -2.61,-2.28 -0.34,-1.51 0.28,-2.94 1.39,-3.18 1.1,-0.25 2.27,0.77 2.61,2.28z"/>
  <path class="fil10" d="M2106.49 199.68c-0.07,1.55 -1.04,2.76 -2.17,2.72 -1.13,-0.05 -1.99,-1.34 -1.93,-2.89 0.07,-1.54 1.04,-2.76 2.17,-2.71 1.13,0.05 1.99,1.34 1.93,2.88z"/>
  <path class="fil9" d="M2097.59 200.95c0.55,1.32 0.47,2.75 0.82,3.83 0.18,0.55 0.43,1.03 0.78,1.33 0.32,0.3 0.84,0.49 1.5,0.74 0.68,0.26 1.4,0.73 1.89,1.43 0.53,0.68 0.67,1.85 0.2,2.62 -0.43,0.77 -1.04,1.19 -1.57,1.58 -0.55,0.37 -1.07,0.76 -1.64,1.11l-0.42 -0.47c0.42,-0.52 0.89,-0.99 1.33,-1.48 0.45,-0.47 0.87,-0.93 1.03,-1.35 0.34,-0.74 -0.39,-1.55 -1.44,-1.97 -0.54,-0.25 -1.32,-0.46 -1.95,-1.11 -0.6,-0.61 -0.9,-1.39 -1.02,-2.11 -0.27,-1.48 0.03,-2.75 -0.11,-3.98l0.6 -0.17z"/>
  <path class="fil10" d="M2082.91 197.5c0.23,-0.95 0.81,-1.85 1.63,-2.5 0.8,-0.66 1.86,-1.03 2.9,-1.08 2.1,-0.13 4.18,1.07 5.04,2.83l-0.49 0.39c-1.39,-1.09 -2.91,-1.69 -4.47,-1.63 -1.57,0.04 -2.99,0.85 -4.05,2.25l-0.56 -0.26z"/>
  <path class="fil10" d="M2099.42 195.54c0.24,-0.74 0.65,-1.44 1.26,-2.02 0.59,-0.6 1.41,-0.99 2.27,-1.13 1.71,-0.28 3.56,0.59 4.24,2.12l-0.5 0.38c-1.13,-0.76 -2.35,-1.08 -3.51,-0.92 -0.58,0.08 -1.13,0.29 -1.67,0.61 -0.53,0.33 -1.02,0.79 -1.55,1.28l-0.54 -0.32z"/>
  <path class="fil3" d="M2090.57 216.45c2.79,4.37 6.52,4.85 9.39,0.24l-9.39 -0.24z"/>
  <path class="fil19" d="M2109.06 213.26l0 0c0,-0.02 0.01,-0.04 0.01,-0.05 0,0.01 -0.01,0.03 -0.01,0.05zm0.58 -5.09c0.09,-1.43 0.13,-2.87 0.14,-4.27 0,-0.36 0,-0.71 0,-1.06 0.03,0 0.05,0 0.08,-0.01 -0.01,1.57 -0.09,3.46 -0.22,5.34z"/>
  <path class="fil20" d="M2109.06 213.26c-1.94,-0.63 -3.34,-2.43 -3.34,-4.59 0,-2.39 1.81,-5.41 4.06,-5.83 0,0.35 0,0.7 0,1.06 -0.01,1.4 -0.05,2.84 -0.14,4.27 -0.14,1.78 -0.32,3.55 -0.57,5.04 0,0.01 -0.01,0.03 -0.01,0.05l0 0z"/>
  <path class="fil20" d="M2083.75 216.68c-2.85,0 -5.16,-2.31 -5.16,-5.16 0,-2.85 2.31,-5.15 5.16,-5.15 2.85,0 5.16,2.3 5.16,5.15 0,2.85 -2.31,5.16 -5.16,5.16z"/>
  <path class="fil9" d="M2067.74 207.09c-1.02,-0.69 -1.95,-1.45 -2.88,-1.9 -0.47,-0.23 -0.89,-0.37 -1.28,-0.33 -0.38,0.03 -0.83,0.25 -1.33,0.61l-0.52 -0.34c0.21,-0.64 0.67,-1.36 1.52,-1.64 0.83,-0.29 1.68,-0.05 2.31,0.27 1.28,0.7 2.15,1.72 2.68,2.95l-0.5 0.38z"/>
  <polygon class="fil21" points="1915.85,378.33 1915.11,369.79 1915.87,378.27 "/>
  <path class="fil22" d="M1915.87 378.27l-0.76 -8.48 -0.02 -0.28c0.1,0.02 0.2,0.04 0.31,0.06l-0.99 -8.88c0,0 0.26,-0.06 0.69,-0.18 1.23,-0.3 2.3,-0.68 3.24,-1.1 2.02,-0.83 4.21,-2.06 4.94,-3.64l0 0 -7.41 22.5z"/>
  <path class="fil23" d="M1915.4 369.57c-0.11,-0.02 -0.21,-0.04 -0.31,-0.06l-0.77 -8.81c0.27,-0.06 0.53,-0.12 0.78,-0.19 -0.43,0.12 -0.69,0.18 -0.69,0.18l0.99 8.88zm2.94 -10.16c2.22,-1 3.73,-2.27 4.94,-3.64 -0.73,1.58 -2.92,2.81 -4.94,3.64z"/>
  <polygon class="fil10" points="1800.56,672.31 2834.91,672.31 2834.91,669.11 1800.56,669.11 "/>
 </g>
</svg>
